Coordinates
version=1
nRows=7
nColumns=40
inDegrees=yes

Units are S.I. units (second, meters, Newtons, ...)
Angles are in degrees.

endheader
time	pelvis_tilt	pelvis_list	pelvis_rotation	pelvis_tx	pelvis_ty	pelvis_tz	hip_flexion_r	hip_adduction_r	hip_rotation_r	knee_angle_r	knee_angle_r_beta	ankle_angle_r	subtalar_angle_r	mtp_angle_r	hip_flexion_l	hip_adduction_l	hip_rotation_l	knee_angle_l	knee_angle_l_beta	ankle_angle_l	subtalar_angle_l	mtp_angle_l	lumbar_extension	lumbar_bending	lumbar_rotation	arm_flex_r	arm_add_r	arm_rot_r	elbow_flex_r	pro_sup_r	wrist_flex_r	wrist_dev_r	arm_flex_l	arm_add_l	arm_rot_l	elbow_flex_l	pro_sup_l	wrist_flex_l	wrist_dev_l
      0.20000000	    -14.97058443	     -0.76099598	    -11.13999587	      0.51504811	      0.85084213	     -0.23054805	     17.96228273	      4.41509206	     -6.92358237	     37.99998963	     37.99998963	     15.22887505	      0.00000000	      0.00000000	     45.01501663	    -11.98212196	     -3.86011775	     94.54137204	     94.54137204	     -6.62719406	      0.00000000	      0.00000000	     -5.29917999	      9.47018568	      7.82906896	     12.71778291	     -9.00250970	     -8.42806999	     77.37711403	     71.35110435	      0.00000000	      0.00000000	    -35.71989867	    -24.61419065	      7.47602431	     81.56422579	     71.33761669	      0.00000000	      0.00000000
      0.20666667	    -15.64196820	      0.05201079	    -10.99047533	      0.53376004	      0.85356064	     -0.22919727	     16.74360710	      3.62865203	     -6.11278127	     36.27114626	     36.27114626	     13.73615317	      0.00000000	      0.00000000	     47.23226387	    -11.41305393	     -4.20147869	     92.83358207	     92.83358207	     -6.02596759	      0.00000000	      0.00000000	     -4.04328287	      8.44084615	      7.75721471	     13.51262502	     -7.62842109	     -7.50262777	     79.29810829	     71.73672236	      0.00000000	      0.00000000	    -38.29860528	    -25.29018912	      7.14174195	     82.38607654	     71.39815554	      0.00000000	      0.00000000
      0.21333333	    -16.34424970	      1.26957220	    -11.15640350	      0.55182151	      0.85657806	     -0.22744238	     15.53775606	      2.43483629	     -5.12087343	     33.97706234	     33.97706234	     10.86397373	      0.00000000	      0.00000000	     49.38727266	    -10.45709644	     -4.58261090	     90.95659807	     90.95659807	     -5.35461626	      0.00000000	      0.00000000	     -2.99616656	      6.76291837	      7.96869088	     14.11190872	     -7.18513846	     -6.17723048	     81.41334568	     72.45101376	      0.00000000	      0.00000000	    -41.22455483	    -25.79613484	      5.49763694	     84.21155529	     71.50483594	      0.00000000	      0.00000000
      0.22000000	    -16.56283133	      1.39728594	    -11.59161837	      0.56931312	      0.86058760	     -0.22572840	     14.46378942	      2.05847128	     -5.36896911	     33.55046378	     33.55046378	     10.31926856	      0.00000000	      0.00000000	     50.97765547	    -10.55690707	     -4.31868524	     89.00255332	     89.00255332	     -5.02748320	      0.00000000	      0.00000000	     -2.72994011	      6.43736658	      9.05121262	     15.51075697	     -6.86512043	     -5.65941137	     82.42637815	     72.59968875	      0.00000000	      0.00000000	    -42.68474567	    -26.70028533	      5.00062307	     84.27881498	     71.52348662	      0.00000000	      0.00000000
      0.22666667	    -17.02846810	      1.84764325	    -11.93093523	      0.58809694	      0.86477624	     -0.22393806	     13.47743178	      1.40886624	     -5.36283567	     32.48198666	     32.48198666	      9.06936425	      0.00000000	      0.00000000	     52.26261746	    -10.53089495	     -4.60201115	     86.14117975	     86.14117975	     -4.65971885	      0.00000000	      0.00000000	     -1.78699206	      5.82846902	      9.69993403	     16.40655957	     -6.42530321	     -4.62410487	     84.02145728	     72.81187512	      0.00000000	      0.00000000	    -44.80159581	    -27.46915300	      4.55917000	     84.91446192	     71.57766367	      0.00000000	      0.00000000
      0.23333333	    -17.37380990	      3.86880683	    -11.95971536	      0.60814061	      0.86904700	     -0.22259348	     11.74366920	     -0.67211882	     -4.04600027	     29.12567949	     29.12567949	      3.00010098	      0.00000000	      0.00000000	     53.23656259	     -8.91813573	     -6.21992679	     82.93084084	     82.93084084	     -4.58885799	      0.00000000	      0.00000000	     -0.86307699	      3.01585146	      9.99308655	     15.82269422	     -7.56754836	     -0.81847022	     87.16262556	     73.45663053	      0.00000000	      0.00000000	    -48.19827731	    -27.27176422	      1.88801052	     88.02404754	     71.86009692	      0.00000000	      0.00000000
      0.24000000	    -17.64115505	      3.86321224	    -12.43107569	      0.62675534	      0.87338360	     -0.22063180	     10.79068168	     -0.90871444	     -4.49079388	     28.70380708	     28.70380708	      2.40084916	      0.00000000	      0.00000000	     54.23176730	     -9.23725057	     -6.13173627	     80.32890478	     80.32890478	     -4.32237173	      0.00000000	      0.00000000	     -0.32657702	      2.94042226	     10.99403778	     17.27838632	     -7.54276897	     -0.24541368	     88.27721492	     73.52782734	      0.00000000	      0.00000000	    -49.83028155	    -28.01207135	      1.45329905	     88.10250480	     71.89838357	      0.00000000	      0.00000000
